<?xml version="1.0" encoding="UTF-8" standalone="no"?>
<svg
   xmlns:dc="http://purl.org/dc/elements/1.1/"
   xmlns:cc="http://creativecommons.org/ns#"
   xmlns:rdf="http://www.w3.org/1999/02/22-rdf-syntax-ns#"
   xmlns:svg="http://www.w3.org/2000/svg"
   xmlns="http://www.w3.org/2000/svg"
   xmlns:sodipodi="http://sodipodi.sourceforge.net/DTD/sodipodi-0.dtd"
   xmlns:inkscape="http://www.inkscape.org/namespaces/inkscape"
   enable-background="new 0 0 512 512"
   id="Layer_1"
   version="1.1"
   viewBox="0 0 512 512"
   xml:space="preserve"
   sodipodi:docname="compose_page_blog.svg"
   inkscape:version="0.92.1 r"><metadata
     id="metadata29"><rdf:RDF><cc:Work
         rdf:about=""><dc:format>image/svg+xml</dc:format><dc:type
           rdf:resource="http://purl.org/dc/dcmitype/StillImage" /><dc:title></dc:title></cc:Work></rdf:RDF></metadata><defs
     id="defs27" /><sodipodi:namedview
     pagecolor="#ffffff"
     bordercolor="#666666"
     borderopacity="1"
     objecttolerance="10"
     gridtolerance="10"
     guidetolerance="10"
     inkscape:pageopacity="0"
     inkscape:pageshadow="2"
     inkscape:window-width="751"
     inkscape:window-height="480"
     id="namedview25"
     showgrid="false"
     inkscape:zoom="0.4609375"
     inkscape:cx="256"
     inkscape:cy="256"
     inkscape:window-x="0"
     inkscape:window-y="0"
     inkscape:window-maximized="0"
     inkscape:current-layer="g22" /><g
     id="g22"><g
       id="g12"><path
         d="M365,167.8H228.2c-5.7,0-10.4-4.7-10.4-10.4v-0.8c0-5.7,4.7-10.4,10.4-10.4H365c5.7,0,10.4,4.7,10.4,10.4    v0.8C375.5,163.1,370.8,167.8,365,167.8z"
         fill="#303A3F"
         id="path2"
         style="fill:#622c85;fill-opacity:1" /><path
         d="M365,228.8H153.9c-5.7,0-10.4-4.7-10.4-10.4v-0.8c0-5.7,4.7-10.4,10.4-10.4H365c5.7,0,10.4,4.7,10.4,10.4    v0.8C375.5,224.1,370.8,228.8,365,228.8z"
         fill="#303A3F"
         id="path4"
         style="fill:#622c85;fill-opacity:1" /><path
         d="M365,289.8H153.9c-5.7,0-10.4-4.7-10.4-10.4v-0.8c0-5.7,4.7-10.4,10.4-10.4H365c5.7,0,10.4,4.7,10.4,10.4    v0.8C375.5,285.1,370.8,289.8,365,289.8z"
         fill="#303A3F"
         id="path6"
         style="fill:#622c85;fill-opacity:1" /><path
         d="M365,350.9H153.9c-5.7,0-10.4-4.7-10.4-10.4v-0.8c0-5.7,4.7-10.4,10.4-10.4H365c5.7,0,10.4,4.7,10.4,10.4    v0.8C375.5,346.2,370.8,350.9,365,350.9z"
         fill="#303A3F"
         id="path8"
         style="fill:#622c85;fill-opacity:1" /><path
         d="M365,411.9H153.9c-5.7,0-10.4-4.7-10.4-10.4v-0.8c0-5.7,4.7-10.4,10.4-10.4H365c5.7,0,10.4,4.7,10.4,10.4    v0.8C375.5,407.2,370.8,411.9,365,411.9z"
         fill="#303A3F"
         id="path10"
         style="fill:#622c85;fill-opacity:1" /></g><path
       d="M392,43.5H179.2l38.6,51.4h144.7c27.2,0,49.5,22.3,49.5,49.5v269.3c0,27.2-22.3,49.5-49.5,49.5H154.4   c-27.2,0-49.5-22.3-49.5-49.5V150.9L65.3,98.4c-0.3,2.7-0.8,5.3-0.8,8v342.3c0,34.6,28.3,63,63,63H392c34.6,0,63-28.3,63-63V106.4   C454.9,71.8,426.6,43.5,392,43.5z"
       fill="#303A3F"
       id="path14"
       style="fill:#622c85;fill-opacity:1" /><g
       id="g20"><path
         d="M125.5,149.8l68.3,25c3.6,1.3,6.5-0.7,6.3-4.6l-3.2-72.7c-0.1-1.5-0.5-2.9-1.3-4.3l0.1-0.1    c-0.1-0.2-0.3-0.4-0.4-0.6l-48.8-66.6l-16,11.7l44.1,60.2c1.8,2.4,1.2,5.8-1.2,7.6l-3.8,2.8c-2.4,1.8-5.8,1.2-7.6-1.2L118,46.9    l-15.8,11.6l44.4,60.7c1.6,2.2,1.1,5.2-1.1,6.8l-4.7,3.5c-2.2,1.6-5.2,1.1-6.8-1.1L89.6,67.6L72.6,80l47.2,64.4    C121,146.8,123,148.9,125.5,149.8z M138,141.9l47.6-34.9c2.9-2.1,7.6,1.3,7.8,5.8l1.1,39.7c-0.7,0.2-1.4,0.3-2,0.7l-14.2,10.4    c-0.1,0.1-0.3,0-0.3,0.1l-36.8-12.6C137,149.6,135.1,144,138,141.9z"
         fill="#303A3F"
         id="path16"
         style="fill:#622c85;fill-opacity:1" /><path
         d="M68.9,75.3l-5.7-7.7c-10.5-14.3-7.3-34.5,7-45l22-16.1c14.3-10.5,34.5-7.3,45,7l5.7,7.7L68.9,75.3z"
         fill="#303A3F"
         id="path18"
         style="fill:#622c85;fill-opacity:1" /></g></g></svg>